<?xml version="1.0" encoding="UTF-8"?><svg id="Layer_2" xmlns="http://www.w3.org/2000/svg" viewBox="0 0 96.22 96.22"><defs><style>.cls-1{fill:#00ea5e;stroke-width:0px;}</style></defs><g id="OBJECTS"><path class="cls-1" d="m21.53,7.74c.21,1.07.72,2.09,1.55,2.91h0c1.65,1.65,4.08,2.07,6.11,1.24.68-.28,1.32-.69,1.87-1.24h0c.25-.25.46-.52.65-.8.06-.08.11-.17.16-.26.06-.1.14-.2.19-.31-.01,0-.03.01-.04.02,1.14-2.13.84-4.84-.96-6.64-1.8-1.8-4.5-2.1-6.64-.96,0-.01.01-.03.02-.04-.11.06-.2.13-.31.19-.09.05-.17.1-.26.16-.28.19-.55.4-.8.65-.55.55-.96,1.19-1.24,1.87-.28.68-.41,1.4-.41,2.12,0,.36.03.72.1,1.08Z"/><path class="cls-1" d="m35.3,22.88l17.61,17.61c2.2,2.2,5.78,2.2,7.98,0,.17-.17.32-.34.46-.52-.01,0-.03,0-.04.01,1.75-2.21,1.63-5.42-.42-7.47l-17.61-17.61c-1.61-1.61-3.94-2.03-5.95-1.29,0,0,0,0,0-.01-.02,0-.05.02-.07.03-.08.03-.16.07-.24.1-.27.12-.54.26-.8.42-.04.03-.08.06-.13.09-.28.19-.55.41-.81.66-1.1,1.1-1.65,2.55-1.65,3.99,0,.72.14,1.44.41,2.12.28.68.69,1.32,1.24,1.87Z"/><path class="cls-1" d="m57.81,18.86c1.1,1.1,2.55,1.65,3.99,1.65.72,0,1.44-.14,2.12-.41.68-.28,1.32-.69,1.87-1.24h0s0,0,0,0c.25-.25.46-.52.65-.79.07-.1.12-.2.18-.3.06-.11.14-.21.2-.32-.01,0-.02,0-.04.01,1.1-2.13.79-4.79-1-6.58L56.54,1.64c-1.78-1.78-4.45-2.1-6.58-1,0-.01,0-.02.01-.04-.11.06-.21.13-.32.2-.1.06-.2.12-.3.18-.28.19-.55.4-.79.65,0,0,0,0,0,0-.83.83-1.34,1.85-1.55,2.91-.34,1.78.17,3.69,1.55,5.07l9.25,9.25Z"/><path class="cls-1" d="m95.58,49.96s.02,0,.04.01c-.06-.11-.13-.21-.2-.32-.06-.1-.12-.2-.18-.3-.19-.28-.4-.55-.65-.8-2.2-2.2-5.78-2.2-7.98,0l-9.25,9.25c-1.38,1.38-1.89,3.29-1.55,5.07.21,1.07.72,2.09,1.55,2.91,0,0,0,0,0,0,.25.25.52.46.79.65.1.07.2.12.3.18.11.06.21.14.32.2,0-.01,0-.02-.01-.04,2.12,1.1,4.79.79,6.58-1l9.25-9.25c1.78-1.78,2.1-4.45,1-6.58Z"/><path class="cls-1" d="m54.18,57.98c.21,1.07.72,2.09,1.55,2.91,0,0,0,0,0,0,.17.17.34.31.52.46,0-.01,0-.03-.01-.04,2.21,1.75,5.42,1.63,7.47-.42l17.61-17.61c1.61-1.61,2.03-3.94,1.29-5.95,0,0,0,0,.01,0,0-.02-.02-.05-.03-.07-.03-.08-.07-.16-.1-.24-.12-.27-.26-.54-.42-.8-.03-.04-.06-.08-.09-.13-.19-.28-.41-.55-.66-.81h0c-.83-.83-1.85-1.34-2.91-1.55-1.78-.34-3.69.17-5.07,1.55l-17.61,17.61c-1.38,1.38-1.89,3.29-1.55,5.07Z"/><path class="cls-1" d="m85.56,31.05h0c.25.25.52.46.8.65.08.06.17.11.26.16.1.06.2.14.31.19,0-.01-.01-.03-.02-.04,2.13,1.14,4.84.84,6.64-.96h0c1.8-1.8,2.1-4.5.96-6.64.01,0,.03.01.04.02-.06-.11-.13-.2-.19-.31-.05-.09-.1-.17-.16-.26-.19-.28-.4-.55-.65-.8h0c-2.2-2.2-5.78-2.2-7.98,0-2.2,2.2-2.2,5.78,0,7.98Z"/><path class="cls-1" d="m73.14,85.56c-1.65-1.65-4.08-2.07-6.11-1.24-.68.28-1.32.69-1.87,1.24h0c-.25.25-.46.52-.65.8-.06.08-.11.17-.16.26-.06.1-.14.2-.19.31.01,0,.03-.01.04-.02-1.14,2.13-.84,4.84.96,6.64s4.5,2.1,6.64.96c0,.01-.01.03-.02.04.11-.06.2-.13.31-.19.09-.05.17-.1.26-.16.28-.19.55-.4.8-.65h0c2.2-2.2,2.2-5.78,0-7.98h0Z"/><path class="cls-1" d="m60.92,73.34l-17.61-17.61c-.83-.83-1.85-1.34-2.91-1.55-.71-.14-1.44-.14-2.16,0-1.07.21-2.09.72-2.91,1.55h0c-.17.17-.31.34-.46.52.01,0,.03,0,.04-.01-1.75,2.21-1.63,5.42.42,7.47l17.61,17.61c1.61,1.61,3.94,2.03,5.95,1.29,0,0,0,0,0,.01.02,0,.05-.02.07-.03.08-.03.16-.07.24-.1.27-.12.54-.26.8-.42.04-.03.08-.06.13-.09.28-.19.55-.41.81-.66h0c.83-.83,1.34-1.85,1.55-2.91.21-1.07.1-2.18-.31-3.2-.28-.68-.69-1.32-1.24-1.87Z"/><path class="cls-1" d="m38.41,77.36c-1.38-1.38-3.29-1.89-5.07-1.55-1.07.21-2.09.72-2.91,1.55-.25.25-.46.52-.65.8-.07.1-.12.2-.18.3-.06.11-.14.21-.2.32.01,0,.02,0,.04-.01-1.1,2.12-.79,4.79,1,6.58l9.25,9.25c1.78,1.78,4.45,2.1,6.58,1,0,.01,0,.02-.01.04.11-.06.21-.13.32-.2.1-.06.2-.12.3-.18.28-.19.55-.4.8-.65h0c2.2-2.2,2.2-5.78,0-7.98l-9.25-9.25Z"/><path class="cls-1" d="m12.2,68.08c-.21-1.07-.72-2.09-1.55-2.91h0c-.25-.25-.52-.46-.8-.65-.08-.06-.17-.11-.26-.16-.1-.06-.2-.14-.31-.19,0,.01.01.03.02.04-2.13-1.14-4.84-.84-6.64.96-1.8,1.8-2.1,4.5-.96,6.64-.01,0-.03-.01-.04-.02.06.11.13.2.19.31.05.09.1.17.16.26.19.28.4.55.65.8h0c2.2,2.2,5.78,2.2,7.98,0,1.1-1.1,1.65-2.55,1.65-3.99,0-.36-.03-.72-.1-1.08Z"/><path class="cls-1" d="m41.73,41.44c.28-.68.41-1.4.41-2.12,0-.36-.03-.72-.1-1.08-.21-1.07-.72-2.09-1.55-2.91-.17-.17-.34-.32-.52-.46,0,.01,0,.03.01.04-2.21-1.75-5.42-1.63-7.47.42l-17.61,17.61c-1.61,1.61-2.03,3.94-1.29,5.95,0,0,0,0-.01,0,0,.02.02.05.03.07.03.08.07.16.1.24.12.27.26.54.42.8.03.04.06.08.09.12.19.28.41.55.66.81h0c2.2,2.2,5.78,2.2,7.98,0l17.61-17.61c.55-.55.96-1.19,1.24-1.87Z"/><path class="cls-1" d="m.8,46.56c.06.1.12.2.18.3.19.28.4.55.65.8h0c.83.83,1.85,1.34,2.91,1.55.36.07.72.1,1.08.1.72,0,1.44-.14,2.12-.41.68-.28,1.32-.69,1.87-1.24l9.25-9.25c2.2-2.2,2.2-5.78,0-7.98h0c-.25-.25-.52-.46-.8-.65-.1-.07-.2-.12-.3-.18-.11-.06-.21-.14-.32-.2,0,.01,0,.02.01.04-2.12-1.1-4.79-.79-6.58,1L1.64,39.68c-1.78,1.78-2.1,4.45-1,6.58-.01,0-.02,0-.04-.01.06.11.13.21.2.32Z"/></g></svg>