<?xml version="1.0" encoding="utf-8"?>
<!-- Generator: Adobe Illustrator 28.0.0, SVG Export Plug-In . SVG Version: 6.00 Build 0)  -->
<svg version="1.1" id="Layer_2_00000155847808431845796400000014718697542893759643_"
	 xmlns="http://www.w3.org/2000/svg" xmlns:xlink="http://www.w3.org/1999/xlink" x="0px" y="0px" viewBox="0 0 455.3 96.2"
	 style="enable-background:new 0 0 455.3 96.2;" xml:space="preserve">
<style type="text/css">
	.st0{display:none;}
	.st1{display:inline;fill:#FFFFFF;}
	.st2{display:inline;fill:#00EA5E;}
	.st3{fill:#6633EE;}
	.st4{fill:#FFFFFF;}
</style>
<g id="OBJECTS" class="st0">
	<path class="st1" d="M118.9,34.5v6.1h-8.3v25.1h-7.6V40.6h-8.3v-6.1L118.9,34.5L118.9,34.5z"/>
	<path class="st1" d="M123.3,37.2c-0.8-0.8-1.3-1.8-1.3-2.9s0.4-2.2,1.3-3s1.9-1.2,3.3-1.2s2.4,0.4,3.2,1.2c0.9,0.8,1.3,1.8,1.3,3
		s-0.4,2.1-1.3,2.9c-0.8,0.8-1.9,1.2-3.2,1.2S124.2,38,123.3,37.2z M130.4,40.9v24.8h-7.6V40.9H130.4z"/>
	<path class="st1" d="M149.7,59.3v6.5h-3.9c-2.8,0-4.9-0.7-6.4-2c-1.5-1.3-2.3-3.5-2.3-6.6v-9.9h-3v-6.3h3v-6h7.6v6h5v6.3h-5v10
		c0,0.7,0.2,1.3,0.5,1.6c0.4,0.3,0.9,0.5,1.8,0.5H149.7L149.7,59.3z"/>
	<path class="st1" d="M153.9,46.6c1-1.9,2.3-3.4,3.9-4.5s3.5-1.6,5.6-1.6c1.8,0,3.3,0.4,4.6,1.1s2.3,1.7,3.1,2.8v-3.5h7.6v24.8h-7.6
		v-3.5c-0.7,1.2-1.8,2.1-3.1,2.8c-1.3,0.7-2.9,1.1-4.6,1.1c-2,0-3.9-0.5-5.5-1.6c-1.7-1-3-2.5-3.9-4.5s-1.4-4.2-1.4-6.7
		S152.9,48.5,153.9,46.6L153.9,46.6z M169.5,48.8c-1.1-1.1-2.3-1.7-3.9-1.7s-2.8,0.5-3.9,1.6c-1.1,1.1-1.6,2.6-1.6,4.5
		s0.5,3.4,1.6,4.5c1.1,1.1,2.3,1.7,3.9,1.7s2.8-0.5,3.9-1.7c1.1-1.1,1.6-2.6,1.6-4.5S170.5,49.9,169.5,48.8z"/>
	<path class="st1" d="M206.3,43.5c1.7,1.9,2.6,4.5,2.6,7.8v14.5h-7.6V52.3c0-1.7-0.4-3-1.3-3.9s-2-1.4-3.5-1.4s-2.6,0.5-3.5,1.4
		s-1.3,2.2-1.3,3.9v13.5h-7.6V40.9h7.6v3.3c0.8-1.1,1.8-2,3.1-2.6s2.8-1,4.4-1C202.2,40.6,204.5,41.6,206.3,43.5L206.3,43.5z"/>
	<path class="st2" d="M243.4,52.4c1.2,1.5,1.8,3.1,1.8,5.1c0,1.6-0.4,3-1.2,4.2c-0.8,1.3-1.9,2.2-3.5,3s-3.3,1.1-5.4,1.1h-10.8V34.7
		h10.5c3.1,0,5.5,0.7,7.2,2.2s2.5,3.3,2.5,5.7c0,1.9-0.5,3.5-1.6,4.7c-1,1.2-2.4,2-4,2.5C240.7,50,242.2,50.9,243.4,52.4L243.4,52.4
		z M227.5,48.4h7.2c2.1,0,3.7-0.5,4.9-1.5c1.1-1,1.7-2.4,1.7-4.1s-0.6-3.1-1.7-4c-1.1-1-2.8-1.5-5-1.5h-7.1L227.5,48.4L227.5,48.4z
		 M240.2,61.5c1.3-1.1,1.9-2.5,1.9-4.4s-0.7-3.4-2-4.5S237,51,234.8,51h-7.3v12.1h7.4C237.2,63.1,238.9,62.6,240.2,61.5L240.2,61.5z
		"/>
	<path class="st2" d="M254.1,32.8v32.9H251V32.8H254.1z"/>
	<path class="st2" d="M265.6,64.6c-1.8-1-3.3-2.5-4.3-4.4c-1-1.9-1.6-4.1-1.6-6.6s0.5-4.7,1.6-6.6c1.1-1.9,2.5-3.3,4.4-4.4
		s3.9-1.5,6.2-1.5s4.4,0.5,6.2,1.5s3.3,2.5,4.4,4.4s1.6,4.1,1.6,6.6s-0.5,4.7-1.6,6.6s-2.5,3.4-4.4,4.4c-1.9,1-4,1.5-6.2,1.5
		S267.4,65.6,265.6,64.6L265.6,64.6z M276.2,62.3c1.4-0.7,2.5-1.8,3.3-3.3c0.8-1.5,1.3-3.3,1.3-5.4s-0.4-3.9-1.2-5.4
		s-1.9-2.6-3.3-3.3c-1.4-0.7-2.9-1.1-4.5-1.1s-3.1,0.4-4.5,1.1c-1.4,0.7-2.5,1.8-3.3,3.3c-0.8,1.5-1.2,3.3-1.2,5.4s0.4,3.9,1.2,5.4
		c0.8,1.5,1.9,2.6,3.2,3.3c1.4,0.7,2.8,1.1,4.4,1.1S274.9,63,276.2,62.3L276.2,62.3z"/>
	<path class="st2" d="M289.8,47c1-1.9,2.4-3.3,4.2-4.4s3.8-1.5,6.1-1.5c3,0,5.5,0.7,7.4,2.2c1.9,1.5,3.2,3.5,3.8,6h-3.3
		c-0.4-1.8-1.3-3.1-2.7-4.1c-1.4-1-3.1-1.5-5.1-1.5c-1.6,0-3.1,0.4-4.4,1.1s-2.3,1.8-3.1,3.3c-0.8,1.5-1.1,3.3-1.1,5.4
		s0.4,4,1.1,5.4c0.8,1.5,1.8,2.6,3.1,3.3s2.8,1.1,4.4,1.1c2,0,3.8-0.5,5.1-1.5s2.3-2.4,2.7-4.2h3.3c-0.6,2.5-1.8,4.5-3.8,6
		c-2,1.5-4.4,2.3-7.4,2.3c-2.3,0-4.3-0.5-6.1-1.5c-1.8-1-3.2-2.5-4.2-4.4c-1-1.9-1.5-4.1-1.5-6.6S288.8,48.9,289.8,47L289.8,47z"/>
	<path class="st2" d="M330.1,65.8l-10-10.9v10.9H317V32.8h3.1v19.5l9.8-10.9h4.4l-11.5,12.1l11.6,12.2L330.1,65.8L330.1,65.8z"/>
	<path class="st2" d="M338.4,47c1-1.9,2.4-3.3,4.2-4.4s3.8-1.5,6.1-1.5c3,0,5.5,0.7,7.4,2.2c1.9,1.5,3.2,3.5,3.8,6h-3.3
		c-0.4-1.8-1.3-3.1-2.7-4.1c-1.4-1-3.1-1.5-5.1-1.5c-1.6,0-3.1,0.4-4.4,1.1s-2.3,1.8-3.1,3.3c-0.8,1.5-1.1,3.3-1.1,5.4
		s0.4,4,1.1,5.4c0.8,1.5,1.8,2.6,3.1,3.3s2.8,1.1,4.4,1.1c2,0,3.8-0.5,5.1-1.5s2.3-2.4,2.7-4.2h3.3c-0.6,2.5-1.8,4.5-3.8,6
		c-2,1.5-4.4,2.3-7.4,2.3c-2.3,0-4.3-0.5-6.1-1.5c-1.8-1-3.2-2.5-4.2-4.4c-1-1.9-1.5-4.1-1.5-6.6S337.4,48.9,338.4,47L338.4,47z"/>
	<path class="st2" d="M382.1,42.2c1.5,0.8,2.6,2,3.5,3.5s1.3,3.5,1.3,5.8v14.2h-3.1V51.9c0-2.6-0.7-4.7-2-6s-3.1-2.1-5.4-2.1
		s-4.2,0.7-5.6,2.2c-1.4,1.5-2.1,3.7-2.1,6.5v13.3h-3.1V32.8h3.1v12.8c0.8-1.5,1.9-2.6,3.4-3.4c1.5-0.8,3.2-1.2,5-1.2
		S380.7,41.4,382.1,42.2L382.1,42.2z"/>
	<path class="st2" d="M393.8,47c1-1.9,2.4-3.3,4.1-4.4c1.8-1,3.8-1.5,6-1.5s4.3,0.5,6,1.6s2.9,2.4,3.6,4.1v-5.3h3.1v24.3h-3.1v-5.4
		c-0.8,1.7-2,3-3.7,4.1c-1.7,1.1-3.7,1.6-6,1.6s-4.2-0.5-5.9-1.6c-1.8-1-3.1-2.5-4.1-4.4c-1-1.9-1.5-4.1-1.5-6.6
		S392.9,48.9,393.8,47L393.8,47z M412.4,48.5c-0.8-1.5-1.9-2.6-3.3-3.4c-1.4-0.8-2.9-1.2-4.6-1.2s-3.3,0.4-4.6,1.2
		c-1.4,0.8-2.4,1.9-3.2,3.4s-1.2,3.2-1.2,5.2s0.4,3.7,1.2,5.2c0.8,1.5,1.9,2.6,3.2,3.4c1.4,0.8,2.9,1.2,4.6,1.2s3.2-0.4,4.6-1.2
		s2.5-1.9,3.3-3.4c0.8-1.5,1.2-3.2,1.2-5.2S413.2,49.9,412.4,48.5L412.4,48.5z"/>
	<path class="st2" d="M423.8,36.2c-0.4-0.4-0.7-1-0.7-1.7s0.2-1.2,0.7-1.6s1-0.7,1.6-0.7s1.2,0.2,1.6,0.7s0.7,1,0.7,1.6
		s-0.2,1.2-0.7,1.7c-0.5,0.4-1,0.7-1.6,0.7S424.2,36.7,423.8,36.2z M426.9,41.5v24.3h-3.1V41.5H426.9z"/>
	<path class="st2" d="M452.5,43.7c1.8,1.8,2.8,4.4,2.8,7.8v14.2h-3.1V51.9c0-2.6-0.7-4.7-2-6s-3.1-2.1-5.4-2.1s-4.2,0.7-5.6,2.2
		c-1.4,1.5-2.1,3.7-2.1,6.5v13.3H434V41.5h3.1v4.1c0.8-1.5,1.9-2.6,3.3-3.4c1.5-0.8,3.1-1.2,4.9-1.2C448.3,41,450.7,41.9,452.5,43.7
		L452.5,43.7z"/>
	<path class="st2" d="M-0.5,7.7c0.2,1.1,0.7,2.1,1.5,2.9l0,0c1.6,1.6,4.1,2.1,6.1,1.2c0.7-0.3,1.3-0.7,1.9-1.2l0,0
		c0.2-0.2,0.5-0.5,0.6-0.8c0.1-0.1,0.1-0.2,0.2-0.3c0.1-0.1,0.1-0.2,0.2-0.3c0,0,0,0,0,0c1.1-2.1,0.8-4.8-1-6.6s-4.5-2.1-6.6-1
		c0,0,0,0,0,0C2.3,1.7,2.2,1.8,2.1,1.8C2,1.9,2,1.9,1.9,2C1.6,2.2,1.3,2.4,1.1,2.7c-0.5,0.5-1,1.2-1.2,1.9s-0.4,1.4-0.4,2.1
		C-0.6,7-0.5,7.4-0.5,7.7L-0.5,7.7z"/>
	<path class="st2" d="M13.3,22.9l17.6,17.6c2.2,2.2,5.8,2.2,8,0c0.2-0.2,0.3-0.3,0.5-0.5c0,0,0,0,0,0c1.8-2.2,1.6-5.4-0.4-7.5
		L21.3,14.9c-1.6-1.6-3.9-2-6-1.3c0,0,0,0,0,0c0,0,0,0-0.1,0c-0.1,0-0.2,0.1-0.2,0.1c-0.3,0.1-0.5,0.3-0.8,0.4c0,0-0.1,0.1-0.1,0.1
		c-0.3,0.2-0.5,0.4-0.8,0.7c-1.1,1.1-1.7,2.5-1.7,4c0,0.7,0.1,1.4,0.4,2.1C12.3,21.7,12.7,22.3,13.3,22.9L13.3,22.9z"/>
	<path class="st2" d="M35.8,18.9c1.1,1.1,2.5,1.6,4,1.6c0.7,0,1.4-0.1,2.1-0.4c0.7-0.3,1.3-0.7,1.9-1.2l0,0l0,0
		c0.2-0.2,0.5-0.5,0.7-0.8c0.1-0.1,0.1-0.2,0.2-0.3c0.1-0.1,0.1-0.2,0.2-0.3c0,0,0,0,0,0c1.1-2.1,0.8-4.8-1-6.6l-9.2-9.2
		c-1.8-1.8-4.5-2.1-6.6-1c0,0,0,0,0,0c-0.1,0.1-0.2,0.1-0.3,0.2c-0.1,0.1-0.2,0.1-0.3,0.2c-0.3,0.2-0.5,0.4-0.8,0.6l0,0
		c-0.8,0.8-1.3,1.9-1.5,2.9c-0.3,1.8,0.2,3.7,1.5,5.1C26.6,9.6,35.8,18.9,35.8,18.9z"/>
	<path class="st2" d="M73.6,50C73.6,50,73.6,50,73.6,50c0-0.1-0.1-0.2-0.2-0.3c-0.1-0.1-0.1-0.2-0.2-0.3c-0.2-0.3-0.4-0.5-0.7-0.8
		c-2.2-2.2-5.8-2.2-8,0l-9.2,9.2c-1.4,1.4-1.9,3.3-1.6,5.1c0.2,1.1,0.7,2.1,1.6,2.9l0,0c0.2,0.2,0.5,0.5,0.8,0.7
		c0.1,0.1,0.2,0.1,0.3,0.2c0.1,0.1,0.2,0.1,0.3,0.2c0,0,0,0,0,0c2.1,1.1,4.8,0.8,6.6-1l9.2-9.2C74.4,54.7,74.7,52.1,73.6,50L73.6,50
		z"/>
	<path class="st2" d="M32.2,58c0.2,1.1,0.7,2.1,1.5,2.9l0,0c0.2,0.2,0.3,0.3,0.5,0.5c0,0,0,0,0,0c2.2,1.8,5.4,1.6,7.5-0.4l17.6-17.6
		c1.6-1.6,2-3.9,1.3-6c0,0,0,0,0,0c0,0,0,0,0-0.1c0-0.1-0.1-0.2-0.1-0.2c-0.1-0.3-0.3-0.5-0.4-0.8c0,0-0.1-0.1-0.1-0.1
		c-0.2-0.3-0.4-0.5-0.7-0.8l0,0c-0.8-0.8-1.8-1.3-2.9-1.5c-1.8-0.3-3.7,0.2-5.1,1.5L33.7,52.9C32.4,54.3,31.8,56.2,32.2,58L32.2,58z
		"/>
	<path class="st2" d="M63.6,31L63.6,31c0.2,0.2,0.5,0.5,0.8,0.6c0.1,0.1,0.2,0.1,0.3,0.2c0.1,0.1,0.2,0.1,0.3,0.2c0,0,0,0,0,0
		c2.1,1.1,4.8,0.8,6.6-1l0,0c1.8-1.8,2.1-4.5,1-6.6c0,0,0,0,0,0c-0.1-0.1-0.1-0.2-0.2-0.3c-0.1-0.1-0.1-0.2-0.2-0.3
		c-0.2-0.3-0.4-0.5-0.7-0.8l0,0c-2.2-2.2-5.8-2.2-8,0C61.4,25.3,61.4,28.8,63.6,31L63.6,31z"/>
	<path class="st2" d="M51.1,85.6c-1.7-1.7-4.1-2.1-6.1-1.2c-0.7,0.3-1.3,0.7-1.9,1.2l0,0c-0.2,0.2-0.5,0.5-0.7,0.8
		c-0.1,0.1-0.1,0.2-0.2,0.3c-0.1,0.1-0.1,0.2-0.2,0.3c0,0,0,0,0,0c-1.1,2.1-0.8,4.8,1,6.6c1.8,1.8,4.5,2.1,6.6,1c0,0,0,0,0,0
		c0.1-0.1,0.2-0.1,0.3-0.2c0.1-0.1,0.2-0.1,0.3-0.2c0.3-0.2,0.6-0.4,0.8-0.7l0,0C53.4,91.3,53.4,87.8,51.1,85.6L51.1,85.6L51.1,85.6
		z"/>
	<path class="st2" d="M38.9,73.3L21.3,55.7c-0.8-0.8-1.8-1.3-2.9-1.5c-0.7-0.1-1.4-0.1-2.2,0c-1.1,0.2-2.1,0.7-2.9,1.5l0,0
		c-0.2,0.2-0.3,0.3-0.5,0.5c0,0,0,0,0,0c-1.8,2.2-1.6,5.4,0.4,7.5l17.6,17.6c1.6,1.6,3.9,2,6,1.3c0,0,0,0,0,0c0,0,0,0,0.1,0
		c0.1,0,0.2-0.1,0.2-0.1c0.3-0.1,0.5-0.3,0.8-0.4c0,0,0.1-0.1,0.1-0.1c0.3-0.2,0.5-0.4,0.8-0.7l0,0c0.8-0.8,1.3-1.8,1.5-2.9
		c0.2-1.1,0.1-2.2-0.3-3.2C39.9,74.5,39.5,73.9,38.9,73.3L38.9,73.3z"/>
	<path class="st2" d="M16.4,77.4c-1.4-1.4-3.3-1.9-5.1-1.6c-1.1,0.2-2.1,0.7-2.9,1.6c-0.2,0.2-0.5,0.5-0.7,0.8
		c-0.1,0.1-0.1,0.2-0.2,0.3c-0.1,0.1-0.1,0.2-0.2,0.3c0,0,0,0,0,0c-1.1,2.1-0.8,4.8,1,6.6l9.3,9.2c1.8,1.8,4.5,2.1,6.6,1
		c0,0,0,0,0,0c0.1-0.1,0.2-0.1,0.3-0.2c0.1-0.1,0.2-0.1,0.3-0.2c0.3-0.2,0.5-0.4,0.8-0.7l0,0c2.2-2.2,2.2-5.8,0-8L16.4,77.4
		L16.4,77.4z"/>
	<path class="st2" d="M-9.8,68.1c-0.2-1.1-0.7-2.1-1.6-2.9l0,0c-0.2-0.2-0.5-0.5-0.8-0.7c-0.1-0.1-0.2-0.1-0.3-0.2
		c-0.1-0.1-0.2-0.1-0.3-0.2c0,0,0,0,0,0c-2.1-1.1-4.8-0.8-6.6,1c-1.8,1.8-2.1,4.5-1,6.6c0,0,0,0,0,0c0.1,0.1,0.1,0.2,0.2,0.3
		c0.1,0.1,0.1,0.2,0.2,0.3c0.2,0.3,0.4,0.6,0.7,0.8l0,0c2.2,2.2,5.8,2.2,8,0c1.1-1.1,1.6-2.6,1.6-4C-9.7,68.8-9.7,68.4-9.8,68.1
		L-9.8,68.1z"/>
	<path class="st2" d="M19.7,41.4c0.3-0.7,0.4-1.4,0.4-2.1c0-0.4,0-0.7-0.1-1.1c-0.2-1.1-0.7-2.1-1.5-2.9c-0.2-0.2-0.3-0.3-0.5-0.5
		c0,0,0,0,0,0c-2.2-1.8-5.4-1.6-7.5,0.4L-7.1,52.9c-1.6,1.6-2,3.9-1.3,6c0,0,0,0,0,0c0,0,0,0,0,0.1c0,0.1,0.1,0.2,0.1,0.2
		c0.1,0.3,0.3,0.5,0.4,0.8c0,0,0.1,0.1,0.1,0.1c0.2,0.3,0.4,0.5,0.7,0.8l0,0c2.2,2.2,5.8,2.2,8,0l17.6-17.6
		C19,42.8,19.5,42.1,19.7,41.4L19.7,41.4z"/>
	<path class="st2" d="M-21.2,46.6c0.1,0.1,0.1,0.2,0.2,0.3c0.2,0.3,0.4,0.5,0.6,0.8l0,0c0.8,0.8,1.9,1.3,2.9,1.5
		c0.4,0.1,0.7,0.1,1.1,0.1c0.7,0,1.4-0.1,2.1-0.4c0.7-0.3,1.3-0.7,1.9-1.2l9.2-9.2c2.2-2.2,2.2-5.8,0-8l0,0
		c-0.2-0.2-0.5-0.5-0.8-0.6c-0.1-0.1-0.2-0.1-0.3-0.2c-0.1-0.1-0.2-0.1-0.3-0.2c0,0,0,0,0,0c-2.1-1.1-4.8-0.8-6.6,1l-9.2,9.2
		c-1.8,1.8-2.1,4.5-1,6.6c0,0,0,0,0,0C-21.3,46.4-21.3,46.5-21.2,46.6L-21.2,46.6z"/>
</g>
<g>
	<g>
		<path class="st3" d="M41.7,51.6c7,3.3,14.3,4.9,20.4,4.6c0,0,0.1,0,0.1,0l0.4-43.6c0-1.5-1.7-2.5-3-1.6L23,35.7
			C25.9,41.3,32.8,47.4,41.7,51.6z"/>
		<path class="st3" d="M60.6,60.3c-6.4,0-13.7-1.8-20.7-5C30.3,50.8,23,44.4,19.5,38L0.8,50.6c-1.5,1-0.9,3.2,0.8,3.5L33,58.3
			c1.8,0.3,3.5,1.2,4.8,2.6l20.8,23.8c1.2,1.3,3.3,0.5,3.4-1.2l0.2-23.2C61.6,60.3,61.1,60.3,60.6,60.3z"/>
	</g>
	<g>
		<path class="st3" d="M60.6,57c-6.4,0-13.7-1.8-20.7-5c-16.5-7.7-26-20.9-21.7-30.2c4.3-9.2,20.6-10.5,37-2.8
			c5.4,2.5,10.3,5.8,14.1,9.4c0.8,0.8,0.9,2.1,0.1,2.9c-0.8,0.8-2.1,0.9-2.9,0.1c-3.5-3.3-8-6.3-13-8.7c-13.9-6.5-28.3-6.1-31.5,0.8
			c-3.2,6.9,5.8,18.2,19.7,24.7c7,3.3,14.3,4.9,20.4,4.6c5.7-0.3,9.6-2.2,11.1-5.4c1.5-3.3,0-7.1-1.5-9.7c-0.6-1-0.3-2.3,0.7-2.8
			c1-0.6,2.3-0.3,2.8,0.7c2.9,4.9,3.5,9.7,1.7,13.5c-2.2,4.6-7.4,7.4-14.6,7.8C61.7,57,61.2,57,60.6,57z"/>
	</g>
</g>
<g>
	<path class="st4" d="M111.3,27.3v8.3h13.4v7.7h-13.4v9h15.2v8h-25.2V19.2h25.2v8H111.3z"/>
	<path class="st4" d="M184.4,31c2.4,2.5,3.6,5.9,3.6,10.2v19.1h-10V42.6c0-2.1-0.6-3.7-1.7-4.9c-1.1-1.2-2.6-1.7-4.6-1.7
		c-2,0-3.5,0.6-4.6,1.7c-1.1,1.2-1.7,2.8-1.7,4.9v17.7h-10V42.6c0-2.1-0.6-3.7-1.7-4.9c-1.1-1.2-2.6-1.7-4.6-1.7
		c-2,0-3.5,0.6-4.6,1.7c-1.1,1.2-1.7,2.8-1.7,4.9v17.7h-10V27.7h10v4.1c1-1.4,2.3-2.4,4-3.3c1.6-0.8,3.5-1.2,5.6-1.2
		c2.5,0,4.7,0.5,6.6,1.6c1.9,1.1,3.4,2.6,4.5,4.5c1.1-1.8,2.7-3.3,4.6-4.4c2-1.1,4.1-1.7,6.4-1.7C178.8,27.3,182,28.6,184.4,31z"/>
	<path class="st4" d="M209.1,28.6c1.7-0.9,3.7-1.4,6-1.4c2.7,0,5.1,0.7,7.3,2c2.2,1.4,3.9,3.3,5.2,5.9c1.3,2.5,1.9,5.5,1.9,8.8
		c0,3.4-0.6,6.3-1.9,8.9c-1.3,2.6-3,4.5-5.2,5.9c-2.2,1.4-4.6,2.1-7.3,2.1c-2.3,0-4.3-0.5-6-1.4c-1.7-0.9-3.1-2.1-4.1-3.6v20.1h-10
		V27.7h10v4.6C206,30.8,207.4,29.6,209.1,28.6z M217.3,38.1c-1.4-1.4-3.1-2.1-5.1-2.1c-2,0-3.7,0.7-5.1,2.2
		c-1.4,1.4-2.1,3.4-2.1,5.9c0,2.5,0.7,4.5,2.1,5.9c1.4,1.4,3.1,2.2,5.1,2.2s3.7-0.7,5.1-2.2c1.4-1.5,2.1-3.4,2.1-5.9
		C219.3,41.5,218.7,39.5,217.3,38.1z"/>
	<path class="st4" d="M244.8,17v43.3h-10V17H244.8z"/>
	<path class="st4" d="M258.3,58.8c-2.6-1.4-4.6-3.3-6-5.9c-1.5-2.5-2.2-5.5-2.2-8.9c0-3.4,0.7-6.3,2.2-8.9c1.5-2.6,3.5-4.5,6.1-5.9
		c2.6-1.4,5.5-2,8.7-2s6.1,0.7,8.7,2c2.6,1.4,4.6,3.3,6.1,5.9c1.5,2.6,2.2,5.5,2.2,8.9c0,3.4-0.8,6.3-2.3,8.9
		c-1.5,2.6-3.6,4.5-6.2,5.9c-2.6,1.4-5.5,2-8.7,2S260.9,60.1,258.3,58.8z M271.9,50.1c1.3-1.4,2-3.4,2-6c0-2.6-0.7-4.6-2-6
		c-1.3-1.4-2.9-2.1-4.8-2.1c-2,0-3.6,0.7-4.9,2.1c-1.3,1.4-1.9,3.4-1.9,6.1c0,2.6,0.6,4.6,1.9,6c1.3,1.4,2.9,2.1,4.8,2.1
		C268.9,52.2,270.5,51.5,271.9,50.1z"/>
	<path class="st4" d="M322.8,27.7l-20.5,48.2h-10.8l7.5-16.6l-13.3-31.6h11.2l7.6,20.4l7.5-20.4H322.8z"/>
	<path class="st3" d="M331.6,22.8V38h15.5v3.4h-15.5V57h17.3v3.4h-21.4v-41h21.4v3.4H331.6z"/>
	<path class="st3" d="M357,35.7c1.3-2.5,3.1-4.4,5.4-5.7c2.3-1.3,4.9-2,7.9-2c3,0,5.7,0.7,7.9,2.1c2.2,1.4,3.8,3.2,4.8,5.4v-7h4.1
		v32H383v-7.1c-1,2.2-2.6,4-4.8,5.4c-2.2,1.4-4.8,2.1-7.9,2.1c-2.9,0-5.5-0.7-7.8-2c-2.3-1.4-4.1-3.3-5.4-5.8c-1.3-2.5-2-5.4-2-8.7
		C355.1,41,355.7,38.2,357,35.7z M381.4,37.6c-1.1-2-2.5-3.5-4.3-4.5c-1.8-1.1-3.8-1.6-6-1.6c-2.3,0-4.3,0.5-6.1,1.5
		c-1.8,1-3.2,2.5-4.2,4.4c-1,1.9-1.6,4.2-1.6,6.9c0,2.6,0.5,4.9,1.6,6.9c1,2,2.4,3.5,4.2,4.5c1.8,1,3.8,1.6,6.1,1.6
		c2.2,0,4.2-0.5,6-1.6c1.8-1.1,3.3-2.6,4.3-4.5c1.1-2,1.6-4.2,1.6-6.8C383,41.8,382.5,39.5,381.4,37.6z"/>
	<path class="st3" d="M398.5,58.3c-2.3-1.7-3.6-4-3.9-6.9h4.2c0.2,1.8,1,3.3,2.5,4.4c1.5,1.1,3.5,1.7,6.1,1.7c2.2,0,4-0.5,5.2-1.6
		c1.3-1.1,1.9-2.4,1.9-3.9c0-1.1-0.4-2-1.1-2.7c-0.7-0.7-1.6-1.3-2.7-1.7c-1.1-0.4-2.5-0.8-4.4-1.3c-2.4-0.6-4.3-1.2-5.8-1.9
		c-1.5-0.6-2.7-1.6-3.8-2.8c-1-1.2-1.6-2.9-1.6-4.9c0-1.6,0.5-3,1.4-4.3c0.9-1.3,2.3-2.4,4-3.2c1.7-0.8,3.7-1.2,5.9-1.2
		c3.4,0,6.2,0.9,8.3,2.6c2.1,1.7,3.2,4.1,3.4,7.2h-4.1c-0.1-1.9-0.8-3.4-2.2-4.5c-1.3-1.2-3.2-1.7-5.5-1.7c-2.1,0-3.7,0.5-5,1.5
		c-1.3,1-1.9,2.2-1.9,3.6c0,1.3,0.4,2.3,1.1,3.1c0.8,0.8,1.7,1.4,2.8,1.9c1.1,0.4,2.7,0.9,4.6,1.5c2.3,0.6,4.1,1.2,5.5,1.8
		c1.4,0.6,2.5,1.4,3.5,2.6c1,1.1,1.5,2.6,1.5,4.5c0,1.7-0.5,3.3-1.4,4.6c-0.9,1.3-2.2,2.4-3.9,3.2c-1.7,0.8-3.6,1.2-5.8,1.2
		C403.8,60.8,400.8,60,398.5,58.3z"/>
	<path class="st3" d="M455.2,46h-26.5c0.1,2.4,0.7,4.5,1.8,6.2c1.1,1.7,2.4,3,4.2,3.9c1.7,0.9,3.6,1.3,5.6,1.3
		c2.7,0,4.9-0.6,6.7-1.9c1.8-1.3,3-3,3.6-5.2h4.3c-0.8,3.1-2.5,5.7-5,7.6c-2.6,2-5.8,3-9.6,3c-3,0-5.7-0.7-8.1-2
		c-2.4-1.3-4.2-3.3-5.6-5.7c-1.3-2.5-2-5.4-2-8.7c0-3.3,0.7-6.2,2-8.7c1.3-2.5,3.2-4.4,5.6-5.7c2.4-1.3,5.1-2,8.1-2c3,0,5.7,0.7,8,2
		c2.3,1.3,4,3.1,5.3,5.4c1.2,2.2,1.8,4.7,1.8,7.5C455.3,44.1,455.2,45.2,455.2,46z M449.7,36.5c-1-1.7-2.4-2.9-4.1-3.8
		c-1.7-0.9-3.6-1.3-5.6-1.3c-3,0-5.6,1-7.8,2.9c-2.1,2-3.3,4.7-3.6,8.3h22.5C451.1,40.2,450.7,38.2,449.7,36.5z"/>
</g>
</svg>
