<?xml version="1.0" encoding="UTF-8"?><svg id="Layer_2" xmlns="http://www.w3.org/2000/svg" viewBox="0 0 477.26 96.22"><defs><style>.cls-1{fill:#fff;}.cls-1,.cls-2{stroke-width:0px;}.cls-2{fill:#00ea5e;}</style></defs><g id="OBJECTS"><path class="cls-1" d="m140.94,34.52v6.1h-8.28v25.14h-7.61v-25.14h-8.28v-6.1h24.16Z"/><path class="cls-1" d="m145.32,37.16c-.84-.79-1.27-1.76-1.27-2.91s.42-2.17,1.27-2.96c.85-.79,1.94-1.18,3.27-1.18s2.38.39,3.23,1.18c.85.79,1.27,1.77,1.27,2.96s-.42,2.13-1.27,2.91c-.84.79-1.92,1.18-3.23,1.18s-2.42-.39-3.27-1.18Zm7.05,3.76v24.83h-7.61v-24.83h7.61Z"/><path class="cls-1" d="m171.73,59.3v6.45h-3.87c-2.76,0-4.91-.67-6.45-2.02-1.54-1.35-2.31-3.55-2.31-6.61v-9.88h-3.03v-6.32h3.03v-6.05h7.61v6.05h4.98v6.32h-4.98v9.97c0,.74.18,1.28.53,1.6.36.33.95.49,1.78.49h2.71Z"/><path class="cls-1" d="m175.89,46.57c.96-1.93,2.28-3.41,3.94-4.45,1.66-1.04,3.51-1.56,5.56-1.56,1.75,0,3.29.36,4.61,1.07,1.32.71,2.34,1.65,3.05,2.8v-3.52h7.61v24.83h-7.61v-3.52c-.74,1.16-1.77,2.09-3.09,2.8-1.32.71-2.86,1.07-4.61,1.07-2.02,0-3.86-.53-5.52-1.58-1.66-1.05-2.97-2.55-3.94-4.49s-1.45-4.19-1.45-6.74.48-4.79,1.45-6.72Zm15.57,2.27c-1.05-1.1-2.34-1.65-3.85-1.65s-2.8.54-3.85,1.62c-1.05,1.08-1.58,2.57-1.58,4.47s.53,3.4,1.58,4.52c1.05,1.11,2.34,1.67,3.85,1.67s2.8-.55,3.85-1.65c1.05-1.1,1.58-2.6,1.58-4.49s-.53-3.4-1.58-4.49Z"/><path class="cls-1" d="m228.26,43.48c1.74,1.88,2.6,4.47,2.6,7.76v14.5h-7.56v-13.48c0-1.66-.43-2.95-1.29-3.87-.86-.92-2.02-1.38-3.47-1.38s-2.61.46-3.47,1.38-1.29,2.21-1.29,3.87v13.48h-7.61v-24.83h7.61v3.29c.77-1.1,1.81-1.96,3.11-2.6,1.3-.64,2.77-.96,4.41-.96,2.91,0,5.23.94,6.96,2.83Z"/><path class="cls-2" d="m265.39,52.36c1.22,1.45,1.82,3.14,1.82,5.07,0,1.57-.39,2.99-1.18,4.25-.79,1.26-1.94,2.25-3.45,2.98-1.51.73-3.32,1.09-5.43,1.09h-10.77v-31.1h10.46c3.14,0,5.54.73,7.19,2.18,1.65,1.45,2.47,3.34,2.47,5.65,0,1.93-.52,3.49-1.56,4.69-1.04,1.2-2.37,2.04-4,2.51,1.75.33,3.23,1.22,4.45,2.67Zm-15.88-3.96h7.25c2.11,0,3.73-.5,4.87-1.49,1.14-.99,1.71-2.37,1.71-4.12s-.57-3.07-1.71-4.05c-1.14-.98-2.81-1.47-5.01-1.47h-7.12v11.12Zm12.7,13.13c1.26-1.07,1.89-2.54,1.89-4.4s-.66-3.36-1.98-4.47c-1.32-1.11-3.09-1.67-5.32-1.67h-7.3v12.15h7.43c2.25,0,4.01-.53,5.27-1.6Z"/><path class="cls-2" d="m276.06,32.83v32.93h-3.11v-32.93h3.11Z"/><path class="cls-2" d="m287.61,64.57c-1.82-1.02-3.26-2.48-4.32-4.36-1.05-1.88-1.58-4.09-1.58-6.61s.53-4.72,1.6-6.61c1.07-1.88,2.52-3.34,4.36-4.36s3.9-1.54,6.18-1.54,4.35.51,6.21,1.54,3.31,2.48,4.36,4.36c1.05,1.88,1.58,4.09,1.58,6.61s-.53,4.69-1.6,6.59c-1.07,1.9-2.54,3.36-4.41,4.38s-3.95,1.54-6.23,1.54-4.34-.51-6.16-1.54Zm10.61-2.27c1.36-.73,2.47-1.82,3.32-3.29.84-1.47,1.27-3.27,1.27-5.41s-.42-3.94-1.25-5.41c-.83-1.47-1.93-2.57-3.29-3.29-1.36-.73-2.85-1.09-4.45-1.09s-3.09.36-4.45,1.09c-1.37.73-2.46,1.82-3.27,3.29-.82,1.47-1.22,3.27-1.22,5.41s.41,3.94,1.22,5.41c.82,1.47,1.9,2.57,3.25,3.29,1.35.73,2.83,1.09,4.43,1.09s3.08-.36,4.45-1.09Z"/><path class="cls-2" d="m311.79,47c1.01-1.88,2.4-3.34,4.18-4.36,1.78-1.02,3.81-1.54,6.1-1.54,3,0,5.46.74,7.41,2.23,1.94,1.48,3.2,3.5,3.76,6.05h-3.34c-.42-1.75-1.31-3.12-2.69-4.12-1.38-.99-3.09-1.49-5.14-1.49-1.63,0-3.1.37-4.41,1.11-1.31.74-2.34,1.85-3.09,3.31-.76,1.47-1.13,3.27-1.13,5.41s.38,3.95,1.13,5.43c.76,1.48,1.79,2.6,3.09,3.34,1.3.74,2.77,1.11,4.41,1.11,2.05,0,3.76-.5,5.14-1.49,1.38-.99,2.28-2.38,2.69-4.16h3.34c-.56,2.49-1.82,4.49-3.78,6.01-1.96,1.51-4.42,2.27-7.39,2.27-2.28,0-4.32-.51-6.1-1.54-1.78-1.02-3.17-2.48-4.18-4.36-1.01-1.88-1.51-4.09-1.51-6.61s.5-4.72,1.51-6.61Z"/><path class="cls-2" d="m352.1,65.75l-10.01-10.9v10.9h-3.11v-32.93h3.11v19.49l9.79-10.86h4.36l-11.52,12.1,11.61,12.19h-4.23Z"/><path class="cls-2" d="m360.42,47c1.01-1.88,2.4-3.34,4.18-4.36,1.78-1.02,3.81-1.54,6.1-1.54,3,0,5.46.74,7.41,2.23,1.94,1.48,3.2,3.5,3.76,6.05h-3.34c-.42-1.75-1.31-3.12-2.69-4.12-1.38-.99-3.09-1.49-5.14-1.49-1.63,0-3.1.37-4.41,1.11-1.31.74-2.34,1.85-3.09,3.31-.76,1.47-1.13,3.27-1.13,5.41s.38,3.95,1.13,5.43c.76,1.48,1.79,2.6,3.09,3.34,1.3.74,2.77,1.11,4.41,1.11,2.05,0,3.76-.5,5.14-1.49,1.38-.99,2.28-2.38,2.69-4.16h3.34c-.56,2.49-1.82,4.49-3.78,6.01-1.96,1.51-4.42,2.27-7.39,2.27-2.28,0-4.32-.51-6.1-1.54-1.78-1.02-3.17-2.48-4.18-4.36-1.01-1.88-1.51-4.09-1.51-6.61s.5-4.72,1.51-6.61Z"/><path class="cls-2" d="m404.14,42.17c1.47.77,2.62,1.95,3.47,3.54.85,1.59,1.27,3.52,1.27,5.81v14.24h-3.07v-13.88c0-2.64-.66-4.66-1.98-6.05-1.32-1.39-3.12-2.09-5.41-2.09s-4.21.74-5.61,2.22c-1.39,1.48-2.09,3.66-2.09,6.54v13.26h-3.11v-32.93h3.11v12.77c.77-1.45,1.91-2.58,3.4-3.38,1.5-.8,3.18-1.2,5.05-1.2s3.49.39,4.96,1.16Z"/><path class="cls-2" d="m415.84,47c.99-1.88,2.37-3.34,4.14-4.36,1.76-1.02,3.76-1.54,5.98-1.54s4.31.53,5.98,1.6c1.67,1.07,2.88,2.43,3.63,4.09v-5.34h3.11v24.29h-3.11v-5.38c-.77,1.66-2,3.03-3.67,4.12-1.68,1.08-3.67,1.62-5.98,1.62s-4.18-.52-5.94-1.56c-1.77-1.04-3.14-2.51-4.14-4.41-.99-1.9-1.49-4.09-1.49-6.58s.5-4.68,1.49-6.56Zm18.53,1.45c-.8-1.48-1.89-2.62-3.27-3.43-1.38-.8-2.9-1.2-4.56-1.2s-3.26.39-4.63,1.16c-1.36.77-2.44,1.89-3.23,3.36s-1.18,3.21-1.18,5.23.39,3.73,1.18,5.23c.79,1.5,1.86,2.64,3.23,3.43,1.36.79,2.91,1.18,4.63,1.18s3.18-.4,4.56-1.2,2.47-1.94,3.27-3.43c.8-1.48,1.2-3.2,1.2-5.16s-.4-3.68-1.2-5.16Z"/><path class="cls-2" d="m445.76,36.21c-.44-.44-.67-.99-.67-1.65s.22-1.19.67-1.62c.45-.43.98-.65,1.6-.65s1.16.22,1.6.65c.44.43.67.97.67,1.62s-.22,1.2-.67,1.65c-.45.44-.98.67-1.6.67s-1.16-.22-1.6-.67Zm3.16,5.25v24.29h-3.11v-24.29h3.11Z"/><path class="cls-2" d="m474.5,43.7c1.84,1.79,2.76,4.4,2.76,7.81v14.24h-3.07v-13.88c0-2.64-.66-4.66-1.98-6.05-1.32-1.39-3.12-2.09-5.41-2.09s-4.21.74-5.61,2.22c-1.39,1.48-2.09,3.66-2.09,6.54v13.26h-3.11v-24.29h3.11v4.14c.77-1.48,1.88-2.62,3.34-3.4,1.45-.79,3.1-1.18,4.94-1.18,2.91,0,5.28.9,7.12,2.69Z"/><path class="cls-2" d="m21.53,7.74c.21,1.07.72,2.09,1.55,2.91h0c1.65,1.65,4.08,2.07,6.11,1.24.68-.28,1.32-.69,1.87-1.24h0c.25-.25.46-.52.65-.8.06-.08.11-.17.16-.26.06-.1.14-.2.19-.31-.01,0-.03.01-.04.02,1.14-2.13.84-4.84-.96-6.64-1.8-1.8-4.5-2.1-6.64-.96,0-.01.01-.03.02-.04-.11.06-.2.13-.31.19-.09.05-.17.1-.26.16-.28.19-.55.4-.8.65-.55.55-.96,1.19-1.24,1.87-.28.68-.41,1.4-.41,2.12,0,.36.03.72.1,1.08Z"/><path class="cls-2" d="m35.3,22.88l17.61,17.61c2.2,2.2,5.78,2.2,7.98,0,.17-.17.32-.34.46-.52-.01,0-.03,0-.04.01,1.75-2.21,1.63-5.42-.42-7.47l-17.61-17.61c-1.61-1.61-3.94-2.03-5.95-1.29,0,0,0,0,0-.01-.02,0-.05.02-.07.03-.08.03-.16.07-.24.1-.27.12-.54.26-.8.42-.04.03-.08.06-.13.09-.28.19-.55.41-.81.66-1.1,1.1-1.65,2.55-1.65,3.99,0,.72.14,1.44.41,2.12.28.68.69,1.32,1.24,1.87Z"/><path class="cls-2" d="m57.81,18.86c1.1,1.1,2.55,1.65,3.99,1.65.72,0,1.44-.14,2.12-.41.68-.28,1.32-.69,1.87-1.24h0s0,0,0,0c.25-.25.46-.52.65-.79.07-.1.12-.2.18-.3.06-.11.14-.21.2-.32-.01,0-.02,0-.04.01,1.1-2.13.79-4.79-1-6.58L56.54,1.64c-1.78-1.78-4.45-2.1-6.58-1,0-.01,0-.02.01-.04-.11.06-.21.13-.32.2-.1.06-.2.12-.3.18-.28.19-.55.4-.79.65,0,0,0,0,0,0-.83.83-1.34,1.85-1.55,2.91-.34,1.78.17,3.69,1.55,5.07l9.25,9.25Z"/><path class="cls-2" d="m95.58,49.96s.02,0,.04.01c-.06-.11-.13-.21-.2-.32-.06-.1-.12-.2-.18-.3-.19-.28-.4-.55-.65-.8-2.2-2.2-5.78-2.2-7.98,0l-9.25,9.25c-1.38,1.38-1.89,3.29-1.55,5.07.21,1.07.72,2.09,1.55,2.91,0,0,0,0,0,0,.25.25.52.46.79.65.1.07.2.12.3.18.11.06.21.14.32.2,0-.01,0-.02-.01-.04,2.12,1.1,4.79.79,6.58-1l9.25-9.25c1.78-1.78,2.1-4.45,1-6.58Z"/><path class="cls-2" d="m54.18,57.98c.21,1.07.72,2.09,1.55,2.91,0,0,0,0,0,0,.17.17.34.31.52.46,0-.01,0-.03-.01-.04,2.21,1.75,5.42,1.63,7.47-.42l17.61-17.61c1.61-1.61,2.03-3.94,1.29-5.95,0,0,0,0,.01,0,0-.02-.02-.05-.03-.07-.03-.08-.07-.16-.1-.24-.12-.27-.26-.54-.42-.8-.03-.04-.06-.08-.09-.13-.19-.28-.41-.55-.66-.81h0c-.83-.83-1.85-1.34-2.91-1.55-1.78-.34-3.69.17-5.07,1.55l-17.61,17.61c-1.38,1.38-1.89,3.29-1.55,5.07Z"/><path class="cls-2" d="m85.56,31.05h0c.25.25.52.46.8.65.08.06.17.11.26.16.1.06.2.14.31.19,0-.01-.01-.03-.02-.04,2.13,1.14,4.84.84,6.64-.96h0c1.8-1.8,2.1-4.5.96-6.64.01,0,.03.01.04.02-.06-.11-.13-.2-.19-.31-.05-.09-.1-.17-.16-.26-.19-.28-.4-.55-.65-.8h0c-2.2-2.2-5.78-2.2-7.98,0-2.2,2.2-2.2,5.78,0,7.98Z"/><path class="cls-2" d="m73.14,85.56c-1.65-1.65-4.08-2.07-6.11-1.24-.68.28-1.32.69-1.87,1.24h0c-.25.25-.46.52-.65.8-.06.08-.11.17-.16.26-.06.1-.14.2-.19.31.01,0,.03-.01.04-.02-1.14,2.13-.84,4.84.96,6.64s4.5,2.1,6.64.96c0,.01-.01.03-.02.04.11-.06.2-.13.31-.19.09-.05.17-.1.26-.16.28-.19.55-.4.8-.65h0c2.2-2.2,2.2-5.78,0-7.98h0Z"/><path class="cls-2" d="m60.92,73.34l-17.61-17.61c-.83-.83-1.85-1.34-2.91-1.55-.71-.14-1.44-.14-2.16,0-1.07.21-2.09.72-2.91,1.55h0c-.17.17-.31.34-.46.52.01,0,.03,0,.04-.01-1.75,2.21-1.63,5.42.42,7.47l17.61,17.61c1.61,1.61,3.94,2.03,5.95,1.29,0,0,0,0,0,.01.02,0,.05-.02.07-.03.08-.03.16-.07.24-.1.27-.12.54-.26.8-.42.04-.03.08-.06.13-.09.28-.19.55-.41.81-.66h0c.83-.83,1.34-1.85,1.55-2.91.21-1.07.1-2.18-.31-3.2-.28-.68-.69-1.32-1.24-1.87Z"/><path class="cls-2" d="m38.41,77.36c-1.38-1.38-3.29-1.89-5.07-1.55-1.07.21-2.09.72-2.91,1.55-.25.25-.46.52-.65.8-.07.1-.12.2-.18.3-.06.11-.14.21-.2.32.01,0,.02,0,.04-.01-1.1,2.12-.79,4.79,1,6.58l9.25,9.25c1.78,1.78,4.45,2.1,6.58,1,0,.01,0,.02-.01.04.11-.06.21-.13.32-.2.1-.06.2-.12.3-.18.28-.19.55-.4.8-.65h0c2.2-2.2,2.2-5.78,0-7.98l-9.25-9.25Z"/><path class="cls-2" d="m12.2,68.08c-.21-1.07-.72-2.09-1.55-2.91h0c-.25-.25-.52-.46-.8-.65-.08-.06-.17-.11-.26-.16-.1-.06-.2-.14-.31-.19,0,.01.01.03.02.04-2.13-1.14-4.84-.84-6.64.96-1.8,1.8-2.1,4.5-.96,6.64-.01,0-.03-.01-.04-.02.06.11.13.2.19.31.05.09.1.17.16.26.19.28.4.55.65.8h0c2.2,2.2,5.78,2.2,7.98,0,1.1-1.1,1.65-2.55,1.65-3.99,0-.36-.03-.72-.1-1.08Z"/><path class="cls-2" d="m41.73,41.44c.28-.68.41-1.4.41-2.12,0-.36-.03-.72-.1-1.08-.21-1.07-.72-2.09-1.55-2.91-.17-.17-.34-.32-.52-.46,0,.01,0,.03.01.04-2.21-1.75-5.42-1.63-7.47.42l-17.61,17.61c-1.61,1.61-2.03,3.94-1.29,5.95,0,0,0,0-.01,0,0,.02.02.05.03.07.03.08.07.16.1.24.12.27.26.54.42.8.03.04.06.08.09.12.19.28.41.55.66.81h0c2.2,2.2,5.78,2.2,7.98,0l17.61-17.61c.55-.55.96-1.19,1.24-1.87Z"/><path class="cls-2" d="m.8,46.56c.06.1.12.2.18.3.19.28.4.55.65.8h0c.83.83,1.85,1.34,2.91,1.55.36.07.72.1,1.08.1.72,0,1.44-.14,2.12-.41.68-.28,1.32-.69,1.87-1.24l9.25-9.25c2.2-2.2,2.2-5.78,0-7.98h0c-.25-.25-.52-.46-.8-.65-.1-.07-.2-.12-.3-.18-.11-.06-.21-.14-.32-.2,0,.01,0,.02.01.04-2.12-1.1-4.79-.79-6.58,1L1.64,39.68c-1.78,1.78-2.1,4.45-1,6.58-.01,0-.02,0-.04-.01.06.11.13.21.2.32Z"/></g></svg>